{
  "accessors": [
    {
      "bufferView": 2,
      "componentType": 5126,
      "count": 456,
      "max": [
        1,
        1,
        1
      ],
      "min": [
        -1,
        -1,
        -1
      ],
      "type": "VEC3"
    },
    {
      "bufferView": 2,
      "byteOffset": 5472,
      "componentType": 5126,
      "count": 456,
      "max": [
        1,
        1,
        0.99957126379013062
      ],
      "min": [
        -1,
        -1,
        -1
      ],
      "type": "VEC3"
    },
    {
      "bufferView": 3,
      "componentType": 5126,
      "count": 456,
      "max": [
        0.78387689590454102,
        0.99989289045333862,
        0.89520496129989624,
        1
      ],
      "min": [
        -0.74723005294799805,
        -0.99999880790710449,
        -0.85783731937408447,
        1
      ],
      "type": "VEC4"
    },
    {
      "bufferView": 1,
      "componentType": 5126,
      "count": 456,
      "max": [
        0.50045901536941528,
        0.99975597858428955
      ],
      "min": [
        0.00024414100334979594,
        0.00024414100334979594
      ],
      "type": "VEC2"
    },
    {
      "bufferView": 0,
      "componentType": 5125,
      "count": 2442,
      "max": [
        455
      ],
      "min": [
        0
      ],
      "type": "SCALAR"
    },
    {
      "bufferView": 2,
      "byteOffset": 10944,
      "componentType": 5126,
      "count": 63,
      "max": [
        0.37640899419784546,
        0.85567498207092285,
        0.64876699447631836
      ],
      "min": [
        0.14964599907398224,
        0.44050601124763489,
        0.060426000505685806
      ],
      "type": "VEC3"
    },
    {
      "bufferView": 2,
      "byteOffset": 11700,
      "componentType": 5126,
      "count": 63,
      "max": [
        0.99999487400054932,
        0.86705148220062256,
        0.87597131729125977
      ],
      "min": [
        -0.99999666213989258,
        -0.86551141738891602,
        -0.49821370840072632
      ],
      "type": "VEC3"
    },
    {
      "bufferView": 3,
      "byteOffset": 7296,
      "componentType": 5126,
      "count": 63,
      "max": [
        0.99936944246292114,
        0.82393324375152588,
        0.82035285234451294,
        1
      ],
      "min": [
        -0.99999767541885376,
        -0.82708346843719482,
        -0.79898601770401001,
        1
      ],
      "type": "VEC4"
    },
    {
      "bufferView": 1,
      "byteOffset": 3648,
      "componentType": 5126,
      "count": 63,
      "max": [
        0.74154198169708252,
        0.088056899607181549
      ],
      "min": [
        0.38329601287841797,
        0.00024414100334979594
      ],
      "type": "VEC2"
    },
    {
      "bufferView": 0,
      "byteOffset": 9768,
      "componentType": 5125,
      "count": 180,
      "max": [
        62
      ],
      "min": [
        0
      ],
      "type": "SCALAR"
    },
    {
      "bufferView": 2,
      "byteOffset": 12456,
      "componentType": 5126,
      "count": 63,
      "max": [
        -0.1495400071144104,
        0.85567498207092285,
        0.64876699447631836
      ],
      "min": [
        -0.37640899419784546,
        0.44245800375938416,
        0.060426000505685806
      ],
      "type": "VEC3"
    },
    {
      "bufferView": 2,
      "byteOffset": 13212,
      "componentType": 5126,
      "count": 63,
      "max": [
        0.99999678134918213,
        0.86824488639831543,
        0.86879456043243408
      ],
      "min": [
        -0.99999499320983887,
        -0.86625379323959351,
        -0.49612894654273987
      ],
      "type": "VEC3"
    },
    {
      "bufferView": 3,
      "byteOffset": 8304,
      "componentType": 5126,
      "count": 63,
      "max": [
        0.99999463558197021,
        0.82531273365020752,
        0.82042473554611206,
        1
      ],
      "min": [
        -0.99999785423278809,
        -0.8291049599647522,
        -0.80259096622467041,
        1
      ],
      "type": "VEC4"
    },
    {
      "bufferView": 1,
      "byteOffset": 4152,
      "componentType": 5126,
      "count": 63,
      "max": [
        0.87216997146606445,
        0.087934002280235291
      ],
      "min": [
        0.055380400270223618,
        0.00024414100334979594
      ],
      "type": "VEC2"
    },
    {
      "bufferView": 0,
      "byteOffset": 10488,
      "componentType": 5125,
      "count": 180,
      "max": [
        62
      ],
      "min": [
        0
      ],
      "type": "SCALAR"
    },
    {
      "bufferView": 2,
      "byteOffset": 13968,
      "componentType": 5126,
      "count": 63,
      "max": [
        0.14481499791145325,
        0.42080399394035339,
        0.98935800790786743
      ],
      "min": [
        -0.14481499791145325,
        -0.10627900063991547,
        0.42626398801803589
      ],
      "type": "VEC3"
    },
    {
      "bufferView": 2,
      "byteOffset": 14724,
      "componentType": 5126,
      "count": 63,
      "max": [
        0.99966299533843994,
        0.86602538824081421,
        0.87093216180801392
      ],
      "min": [
        -0.99999785423278809,
        -0.86602485179901123,
        -0.5000002384185791
      ],
      "type": "VEC3"
    },
    {
      "bufferView": 3,
      "byteOffset": 9312,
      "componentType": 5126,
      "count": 63,
      "max": [
        1,
        0.93544477224349976,
        0.47578305006027222,
        1
      ],
      "min": [
        -1,
        -0.94253826141357422,
        -0.47578495740890503,
        1
      ],
      "type": "VEC4"
    },
    {
      "bufferView": 1,
      "byteOffset": 4656,
      "componentType": 5126,
      "count": 63,
      "max": [
        0.61043697595596313,
        0.091670900583267212
      ],
      "min": [
        0.00024414100334979594,
        0.00024414100334979594
      ],
      "type": "VEC2"
    },
    {
      "bufferView": 0,
      "byteOffset": 11208,
      "componentType": 5125,
      "count": 180,
      "max": [
        62
      ],
      "min": [
        0
      ],
      "type": "SCALAR"
    }
  ],
  "asset": {
    "extras": {
      "author": "Pwinstone (https://sketchfab.com/Pwinstone)",
      "license": "CC-BY-4.0 (http://creativecommons.org/licenses/by/4.0/)",
      "source": "https://sketchfab.com/3d-models/bowling-ball-43b9952b39d14295bfcc357786092c51",
      "title": "Bowling ball"
    },
    "generator": "Sketchfab-4.58.0",
    "version": "2.0"
  },
  "bufferViews": [
    {
      "buffer": 0,
      "byteLength": 11928,
      "byteOffset": 0,
      "name": "floatBufferViews",
      "target": 34963
    },
    {
      "buffer": 0,
      "byteLength": 5160,
      "byteOffset": 11928,
      "byteStride": 8,
      "name": "floatBufferViews",
      "target": 34962
    },
    {
      "buffer": 0,
      "byteLength": 15480,
      "byteOffset": 17088,
      "byteStride": 12,
      "name": "floatBufferViews",
      "target": 34962
    },
    {
      "buffer": 0,
      "byteLength": 10320,
      "byteOffset": 32568,
      "byteStride": 16,
      "name": "floatBufferViews",
      "target": 34962
    }
  ],
  "buffers": [
    {
      "byteLength": 42888,
      "uri": "scene.bin"
    }
  ],
  "images": [
    {
      "uri": "textures/lambert1_baseColor.jpeg"
    },
    {
      "uri": "textures/lambert1_normal.png"
    },
    {
      "uri": "textures/lambert1_metallicRoughness.png"
    }
  ],
  "materials": [
    {
      "doubleSided": true,
      "name": "lambert1",
      "normalTexture": {
        "index": 1,
        "scale": 1,
        "texCoord": 0
      },
      "occlusionTexture": {
        "index": 2,
        "strength": 1,
        "texCoord": 0
      },
      "pbrMetallicRoughness": {
        "baseColorFactor": [
          1,
          1,
          1,
          1
        ],
        "baseColorTexture": {
          "index": 0,
          "texCoord": 0
        },
        "metallicFactor": 1,
        "metallicRoughnessTexture": {
          "index": 2,
          "texCoord": 0
        },
        "roughnessFactor": 1
      }
    }
  ],
  "meshes": [
    {
      "name": "defaultMaterial",
      "primitives": [
        {
          "attributes": {
            "NORMAL": 1,
            "POSITION": 0,
            "TANGENT": 2,
            "TEXCOORD_0": 3
          },
          "indices": 4,
          "material": 0,
          "mode": 4
        }
      ]
    },
    {
      "name": "defaultMaterial",
      "primitives": [
        {
          "attributes": {
            "NORMAL": 6,
            "POSITION": 5,
            "TANGENT": 7,
            "TEXCOORD_0": 8
          },
          "indices": 9,
          "material": 0,
          "mode": 4
        }
      ]
    },
    {
      "name": "defaultMaterial",
      "primitives": [
        {
          "attributes": {
            "NORMAL": 11,
            "POSITION": 10,
            "TANGENT": 12,
            "TEXCOORD_0": 13
          },
          "indices": 14,
          "material": 0,
          "mode": 4
        }
      ]
    },
    {
      "name": "defaultMaterial",
      "primitives": [
        {
          "attributes": {
            "NORMAL": 16,
            "POSITION": 15,
            "TANGENT": 17,
            "TEXCOORD_0": 18
          },
          "indices": 19,
          "material": 0,
          "mode": 4
        }
      ]
    }
  ],
  "nodes": [
    {
      "children": [
        1
      ],
      "name": "RootNode (gltf orientation matrix)",
      "rotation": [
        -0.70710678118654746,
        -0,
        -0,
        0.70710678118654757
      ]
    },
    {
      "children": [
        2
      ],
      "name": "RootNode (model correction matrix)"
    },
    {
      "children": [
        3,
        5,
        7,
        9
      ],
      "matrix": [
        1,
        0,
        0,
        0,
        0,
        -4.3711390063094768e-08,
        0.999999999999999,
        0,
        0,
        -0.999999999999999,
        -4.3711390063094768e-08,
        0,
        0,
        0,
        0,
        1
      ],
      "name": "Collada visual scene group"
    },
    {
      "children": [
        4
      ],
      "name": "BowlingBall_low"
    },
    {
      "mesh": 0,
      "name": "defaultMaterial"
    },
    {
      "children": [
        6
      ],
      "name": "Hole3_low"
    },
    {
      "mesh": 1,
      "name": "defaultMaterial"
    },
    {
      "children": [
        8
      ],
      "name": "Hole2_low"
    },
    {
      "mesh": 2,
      "name": "defaultMaterial"
    },
    {
      "children": [
        10
      ],
      "name": "Hole1_low"
    },
    {
      "mesh": 3,
      "name": "defaultMaterial"
    }
  ],
  "samplers": [
    {
      "magFilter": 9729,
      "minFilter": 9987,
      "wrapS": 10497,
      "wrapT": 10497
    }
  ],
  "scene": 0,
  "scenes": [
    {
      "name": "OSG_Scene",
      "nodes": [
        0
      ]
    }
  ],
  "textures": [
    {
      "sampler": 0,
      "source": 0
    },
    {
      "sampler": 0,
      "source": 1
    },
    {
      "sampler": 0,
      "source": 2
    }
  ]
}

