{
  "accessors": [
    {
      "bufferView": 2,
      "componentType": 5126,
      "count": 540,
      "max": [
        18.794000625610352,
        18.743099212646484,
        0.39120000600814819
      ],
      "min": [
        -18.808099746704102,
        -18.859800338745117,
        0
      ],
      "type": "VEC3"
    },
    {
      "bufferView": 2,
      "byteOffset": 6480,
      "componentType": 5126,
      "count": 540,
      "max": [
        0.99996805191040039,
        0.99987208843231201,
        1
      ],
      "min": [
        -0.99987208843231201,
        -0.99996805191040039,
        -1
      ],
      "type": "VEC3"
    },
    {
      "bufferView": 3,
      "componentType": 5126,
      "count": 540,
      "max": [
        1,
        0.99996799230575562,
        0,
        1
      ],
      "min": [
        -1,
        -0.99987208843231201,
        0,
        1
      ],
      "type": "VEC4"
    },
    {
      "bufferView": 1,
      "componentType": 5126,
      "count": 540,
      "max": [
        2.3789000511169434,
        2.3798999786376953
      ],
      "min": [
        -1.3798999786376953,
        -1.3789000511169434
      ],
      "type": "VEC2"
    },
    {
      "bufferView": 0,
      "componentType": 5125,
      "count": 1584,
      "max": [
        539
      ],
      "min": [
        0
      ],
      "type": "SCALAR"
    }
  ],
  "asset": {
    "extras": {
      "author": "Tekla Gedeon (https://sketchfab.com/Extended_Forest)",
      "license": "CC-BY-4.0 (http://creativecommons.org/licenses/by/4.0/)",
      "source": "https://sketchfab.com/3d-models/luna-park-grass-field-99e831fdf6d44a549650b6ef26cec9b5",
      "title": "Luna Park Grass Field"
    },
    "generator": "Sketchfab-9.9.0",
    "version": "2.0"
  },
  "bufferViews": [
    {
      "buffer": 0,
      "byteLength": 6336,
      "byteOffset": 0,
      "name": "floatBufferViews",
      "target": 34963
    },
    {
      "buffer": 0,
      "byteLength": 4320,
      "byteOffset": 6336,
      "byteStride": 8,
      "name": "floatBufferViews",
      "target": 34962
    },
    {
      "buffer": 0,
      "byteLength": 12960,
      "byteOffset": 10656,
      "byteStride": 12,
      "name": "floatBufferViews",
      "target": 34962
    },
    {
      "buffer": 0,
      "byteLength": 8640,
      "byteOffset": 23616,
      "byteStride": 16,
      "name": "floatBufferViews",
      "target": 34962
    }
  ],
  "buffers": [
    {
      "byteLength": 32256,
      "uri": "scene.bin"
    }
  ],
  "images": [
    {
      "uri": "textures/GameMATERIALSM_Ground_Moss_M_albedo_Mat_M_Ground_Moss_M_albedo_Mat_baseColor.png"
    },
    {
      "uri": "textures/GameMATERIALSM_Ground_Moss_M_albedo_Mat_M_Ground_Moss_M_albedo_Mat_normal.png"
    }
  ],
  "materials": [
    {
      "doubleSided": true,
      "name": "GameMATERIALSM_Ground_Moss_M_albedo_Mat_M_Ground_Moss_M_albedo_Mat",
      "normalTexture": {
        "index": 1,
        "scale": 1,
        "texCoord": 0
      },
      "pbrMetallicRoughness": {
        "baseColorFactor": [
          1,
          1,
          1,
          1
        ],
        "baseColorTexture": {
          "index": 0,
          "texCoord": 0
        },
        "metallicFactor": 0,
        "roughnessFactor": 0.59999999999999998
      }
    }
  ],
  "meshes": [
    {
      "primitives": [
        {
          "attributes": {
            "NORMAL": 1,
            "POSITION": 0,
            "TANGENT": 2,
            "TEXCOORD_0": 3
          },
          "indices": 4,
          "material": 0,
          "mode": 4
        }
      ]
    }
  ],
  "nodes": [
    {
      "children": [
        1
      ],
      "name": "RootNode (gltf orientation matrix)",
      "rotation": [
        -0.70710678118654746,
        -0,
        -0,
        0.70710678118654757
      ]
    },
    {
      "children": [
        2
      ],
      "name": "RootNode (model correction matrix)"
    },
    {
      "children": [
        3
      ],
      "name": "grassfield.obj.cleaner.materialmerger.gles"
    },
    {
      "mesh": 0,
      "name": ""
    }
  ],
  "samplers": [
    {
      "magFilter": 9729,
      "minFilter": 9987,
      "wrapS": 10497,
      "wrapT": 10497
    }
  ],
  "scene": 0,
  "scenes": [
    {
      "name": "OSG_Scene",
      "nodes": [
        0
      ]
    }
  ],
  "textures": [
    {
      "sampler": 0,
      "source": 0
    },
    {
      "sampler": 0,
      "source": 1
    }
  ]
}

