{
  "accessors": [
    {
      "bufferView": 2,
      "componentType": 5126,
      "count": 176,
      "max": [
        7.6102700233459473,
        1.9122699499130249,
        0.81042999029159546
      ],
      "min": [
        -7.1781702041625977,
        -18.048629760742188,
        0.70100998878479004
      ],
      "type": "VEC3"
    },
    {
      "bufferView": 2,
      "byteOffset": 2112,
      "componentType": 5126,
      "count": 176,
      "max": [
        1,
        1,
        1
      ],
      "min": [
        -1,
        -1,
        -1
      ],
      "type": "VEC3"
    },
    {
      "bufferView": 3,
      "componentType": 5126,
      "count": 176,
      "max": [
        1,
        0.99999827146530151,
        0.98944538831710815,
        1
      ],
      "min": [
        -0.99819678068161011,
        -0.99903059005737305,
        -0.99013090133666992,
        -1
      ],
      "type": "VEC4"
    },
    {
      "bufferView": 1,
      "componentType": 5126,
      "count": 176,
      "max": [
        0.98009002208709717,
        0.49312001466751099
      ],
      "min": [
        0,
        0.32934999465942383
      ],
      "type": "VEC2"
    },
    {
      "bufferView": 0,
      "componentType": 5125,
      "count": 372,
      "max": [
        175
      ],
      "min": [
        0
      ],
      "type": "SCALAR"
    },
    {
      "bufferView": 2,
      "byteOffset": 4224,
      "componentType": 5126,
      "count": 176,
      "max": [
        7.6102700233459473,
        1.9122699499130249,
        0.81042999029159546
      ],
      "min": [
        -7.1781702041625977,
        -18.048629760742188,
        0.70100998878479004
      ],
      "type": "VEC3"
    },
    {
      "bufferView": 2,
      "byteOffset": 6336,
      "componentType": 5126,
      "count": 176,
      "max": [
        1,
        1,
        1
      ],
      "min": [
        -1,
        -1,
        -1
      ],
      "type": "VEC3"
    },
    {
      "bufferView": 3,
      "byteOffset": 2816,
      "componentType": 5126,
      "count": 176,
      "max": [
        1,
        0.99999833106994629,
        0.98901176452636719,
        1
      ],
      "min": [
        -0.99823588132858276,
        -0.99894499778747559,
        -0.99012362957000732,
        -1
      ],
      "type": "VEC4"
    },
    {
      "bufferView": 1,
      "byteOffset": 1408,
      "componentType": 5126,
      "count": 176,
      "max": [
        0.99997997283935547,
        0.12190999835729599
      ],
      "min": [
        1.9999999494757503e-05,
        0
      ],
      "type": "VEC2"
    },
    {
      "bufferView": 0,
      "byteOffset": 1488,
      "componentType": 5125,
      "count": 372,
      "max": [
        175
      ],
      "min": [
        0
      ],
      "type": "SCALAR"
    },
    {
      "bufferView": 2,
      "byteOffset": 8448,
      "componentType": 5126,
      "count": 24,
      "max": [
        5.2863302230834961,
        1.1340299844741821,
        0.1269800066947937
      ],
      "min": [
        -4.7278499603271484,
        -0.58392000198364258,
        -0.19101999700069427
      ],
      "type": "VEC3"
    },
    {
      "bufferView": 2,
      "byteOffset": 8736,
      "componentType": 5126,
      "count": 24,
      "max": [
        1,
        0.99999558925628662,
        1
      ],
      "min": [
        -1,
        -0.99999558925628662,
        -1
      ],
      "type": "VEC3"
    },
    {
      "bufferView": 3,
      "byteOffset": 5632,
      "componentType": 5126,
      "count": 24,
      "max": [
        0.99999946355819702,
        0.028855295851826668,
        0.99999850988388062,
        1
      ],
      "min": [
        -1,
        -0.071044541895389557,
        -0.9997907280921936,
        1
      ],
      "type": "VEC4"
    },
    {
      "bufferView": 1,
      "byteOffset": 2816,
      "componentType": 5126,
      "count": 24,
      "max": [
        1,
        1
      ],
      "min": [
        0.00016999999934341758,
        0.54558002948760986
      ],
      "type": "VEC2"
    },
    {
      "bufferView": 0,
      "byteOffset": 2976,
      "componentType": 5125,
      "count": 36,
      "max": [
        23
      ],
      "min": [
        0
      ],
      "type": "SCALAR"
    },
    {
      "bufferView": 4,
      "componentType": 5126,
      "count": 2,
      "max": [
        1,
        0,
        0,
        0,
        0,
        1,
        0,
        0,
        0,
        1,
        1,
        0,
        0,
        0,
        0,
        1
      ],
      "min": [
        1,
        0,
        0,
        0,
        0,
        0,
        -1,
        0,
        0,
        0,
        0,
        0,
        0,
        0,
        0,
        1
      ],
      "type": "MAT4"
    },
    {
      "bufferView": 4,
      "byteOffset": 128,
      "componentType": 5126,
      "count": 2,
      "max": [
        1,
        0,
        0,
        0,
        0,
        1,
        0,
        0,
        0,
        1,
        1,
        0,
        0,
        0,
        0,
        1
      ],
      "min": [
        1,
        0,
        0,
        0,
        0,
        0,
        -1,
        0,
        0,
        0,
        0,
        0,
        0,
        0,
        0,
        1
      ],
      "type": "MAT4"
    },
    {
      "bufferView": 4,
      "byteOffset": 256,
      "componentType": 5126,
      "count": 2,
      "max": [
        1,
        0,
        0,
        0,
        0,
        1,
        0,
        0,
        0,
        1,
        1,
        0,
        0,
        0,
        0,
        1
      ],
      "min": [
        1,
        0,
        0,
        0,
        0,
        0,
        -1,
        0,
        0,
        0,
        0,
        0,
        0,
        0,
        0,
        1
      ],
      "type": "MAT4"
    }
  ],
  "asset": {
    "extras": {
      "author": "MysteryPancake (https://sketchfab.com/mysterypancake)",
      "license": "CC-BY-4.0 (http://creativecommons.org/licenses/by/4.0/)",
      "source": "https://sketchfab.com/models/cf4cc4280ebb4ab6979f2dac248a436d",
      "title": "Roadblock"
    },
    "generator": "Sketchfab-3.19.8",
    "version": "2.0"
  },
  "bufferViews": [
    {
      "buffer": 0,
      "byteLength": 3120,
      "byteOffset": 0,
      "name": "floatBufferViews",
      "target": 34963
    },
    {
      "buffer": 0,
      "byteLength": 3008,
      "byteOffset": 3120,
      "byteStride": 8,
      "name": "floatBufferViews",
      "target": 34962
    },
    {
      "buffer": 0,
      "byteLength": 9024,
      "byteOffset": 6128,
      "byteStride": 12,
      "name": "floatBufferViews",
      "target": 34962
    },
    {
      "buffer": 0,
      "byteLength": 6016,
      "byteOffset": 15152,
      "byteStride": 16,
      "name": "floatBufferViews",
      "target": 34962
    },
    {
      "buffer": 0,
      "byteLength": 384,
      "byteOffset": 21168,
      "byteStride": 64,
      "name": "floatBufferViews"
    }
  ],
  "buffers": [
    {
      "byteLength": 21552,
      "uri": "scene.bin"
    }
  ],
  "extensionsRequired": [
    "KHR_materials_pbrSpecularGlossiness"
  ],
  "extensionsUsed": [
    "KHR_materials_pbrSpecularGlossiness"
  ],
  "images": [
    {
      "uri": "textures/roadblock_diffuse.png"
    }
  ],
  "materials": [
    {
      "doubleSided": true,
      "extensions": {
        "KHR_materials_pbrSpecularGlossiness": {
          "diffuseFactor": [
            1,
            1,
            1,
            1
          ],
          "diffuseTexture": {
            "index": 0,
            "texCoord": 0
          },
          "glossinessFactor": 1,
          "specularFactor": [
            1,
            1,
            1
          ]
        }
      },
      "name": "roadblock"
    }
  ],
  "meshes": [
    {
      "name": "Stand_L.001_0",
      "primitives": [
        {
          "attributes": {
            "NORMAL": 1,
            "POSITION": 0,
            "TANGENT": 2,
            "TEXCOORD_0": 3
          },
          "indices": 4,
          "material": 0,
          "mode": 4
        }
      ]
    },
    {
      "name": "Stand_R.001_0",
      "primitives": [
        {
          "attributes": {
            "NORMAL": 6,
            "POSITION": 5,
            "TANGENT": 7,
            "TEXCOORD_0": 8
          },
          "indices": 9,
          "material": 0,
          "mode": 4
        }
      ]
    },
    {
      "name": "Barrier.001_0",
      "primitives": [
        {
          "attributes": {
            "NORMAL": 11,
            "POSITION": 10,
            "TANGENT": 12,
            "TEXCOORD_0": 13
          },
          "indices": 14,
          "material": 0,
          "mode": 4
        }
      ]
    }
  ],
  "nodes": [
    {
      "children": [
        1
      ],
      "name": "RootNode (gltf orientation matrix)",
      "rotation": [
        -0.70710678118654746,
        -0,
        -0,
        0.70710678118654757
      ]
    },
    {
      "children": [
        2
      ],
      "name": "RootNode (model correction matrix)"
    },
    {
      "children": [
        3,
        8,
        13
      ],
      "name": "Root"
    },
    {
      "children": [
        4
      ],
      "matrix": [
        48.867100000000001,
        0,
        0,
        0,
        0,
        48.867100000000001,
        0,
        0,
        0,
        0,
        48.867100000000001,
        0,
        -35.861899999999999,
        -0.10621000000000001,
        0.86531000000000002,
        1
      ],
      "name": "Stand_L"
    },
    {
      "children": [
        5
      ],
      "name": "Stand_L_rootJoint"
    },
    {
      "children": [
        6
      ],
      "matrix": [
        1,
        0,
        0,
        0,
        0,
        0,
        1,
        0,
        0,
        -1,
        0,
        0,
        0,
        0,
        0,
        1
      ],
      "name": "Bone_Stand_L"
    },
    {
      "children": [
        7
      ],
      "matrix": [
        5.0000000000000023e-05,
        0,
        0.082200000000000023,
        0,
        -0,
        0.082200000000000023,
        -0,
        0,
        -0.082200000000000023,
        -0,
        5.0000000000000023e-05,
        0,
        0.074040000000000009,
        1.46305,
        -0.0070300000000000015,
        1
      ],
      "name": "Stand_L.001"
    },
    {
      "mesh": 0,
      "name": "Stand_L.001_0"
    },
    {
      "children": [
        9
      ],
      "matrix": [
        48.867100000000001,
        0,
        0,
        0,
        0,
        48.867100000000001,
        0,
        0,
        0,
        0,
        48.867100000000001,
        0,
        36.269420000000004,
        0.064170000000000019,
        -0.15989000000000003,
        1
      ],
      "name": "Stand_R"
    },
    {
      "children": [
        10
      ],
      "name": "Stand_R_rootJoint"
    },
    {
      "children": [
        11
      ],
      "matrix": [
        1,
        0,
        0,
        0,
        0,
        0,
        1,
        0,
        0,
        -1,
        0,
        0,
        0,
        0,
        0,
        1
      ],
      "name": "Bone_Stand_R"
    },
    {
      "children": [
        12
      ],
      "matrix": [
        5.0000000000000023e-05,
        0,
        0.082200000000000023,
        0,
        -0,
        0.082200000000000023,
        -0,
        0,
        -0.082200000000000023,
        -0,
        5.0000000000000023e-05,
        0,
        0.061480000000000007,
        1.48403,
        -0.0044300000000000008,
        1
      ],
      "name": "Stand_R.001"
    },
    {
      "mesh": 1,
      "name": "Stand_R.001_0"
    },
    {
      "children": [
        14
      ],
      "matrix": [
        4.0000000000000017e-05,
        0,
        -48.867100000000001,
        0,
        0,
        48.867100000000001,
        0,
        0,
        48.867100000000001,
        0,
        4.0000000000000017e-05,
        0,
        -45.605690000000003,
        0.0015200000000000005,
        61.037010000000002,
        1
      ],
      "name": "Barrier"
    },
    {
      "children": [
        15
      ],
      "name": "Barrier_rootJoint"
    },
    {
      "children": [
        16
      ],
      "matrix": [
        1,
        0,
        0,
        0,
        0,
        0,
        1,
        0,
        0,
        -1,
        0,
        0,
        0,
        0,
        0,
        1
      ],
      "name": "Bone_Barrier"
    },
    {
      "children": [
        17
      ],
      "matrix": [
        -0,
        -0.19834000000000004,
        0.00012000000000000004,
        0,
        -0.19834000000000004,
        0,
        -0,
        0,
        0,
        -0.00012000000000000004,
        -0.19834000000000004,
        0,
        0.038460000000000001,
        1.0043599999999999,
        -0.0022600000000000007,
        1
      ],
      "name": "Barrier.001"
    },
    {
      "mesh": 2,
      "name": "Barrier.001_0"
    }
  ],
  "samplers": [
    {
      "magFilter": 9729,
      "minFilter": 9987,
      "wrapS": 10497,
      "wrapT": 10497
    }
  ],
  "scene": 0,
  "scenes": [
    {
      "name": "OSG_Scene",
      "nodes": [
        0
      ]
    }
  ],
  "skins": [
    {
      "inverseBindMatrices": 15,
      "joints": [
        4,
        5
      ],
      "skeleton": 4
    },
    {
      "inverseBindMatrices": 16,
      "joints": [
        9,
        10
      ],
      "skeleton": 9
    },
    {
      "inverseBindMatrices": 17,
      "joints": [
        14,
        15
      ],
      "skeleton": 14
    }
  ],
  "textures": [
    {
      "sampler": 0,
      "source": 0
    }
  ]
}

